<?xml version="1.0" encoding="UTF-8"?>
<!DOCTYPE svg PUBLIC "-//W3C//DTD SVG 1.1//EN" "http://www.w3.org/Graphics/SVG/1.1/DTD/svg11.dtd">
<svg xmlns="http://www.w3.org/2000/svg" version="1.1" width="200px" height="200px" style="shape-rendering:geometricPrecision; text-rendering:geometricPrecision; image-rendering:optimizeQuality; fill-rule:evenodd; clip-rule:evenodd" xmlns:xlink="http://www.w3.org/1999/xlink">
<g><path style="opacity:0.875" fill="#000000" d="M 93.5,-0.5 C 97.5,-0.5 101.5,-0.5 105.5,-0.5C 115.085,3.16951 118.751,10.0028 116.5,20C 133.588,28.961 150.755,37.7943 168,46.5C 175.642,40.9261 183.808,40.0928 192.5,44C 195.454,46.4412 197.787,49.2745 199.5,52.5C 199.5,55.8333 199.5,59.1667 199.5,62.5C 196.694,68.1302 192.194,71.7969 186,73.5C 185.333,90.8333 185.333,108.167 186,125.5C 192.194,127.203 196.694,130.87 199.5,136.5C 199.5,139.833 199.5,143.167 199.5,146.5C 194.663,155.847 186.996,159.347 176.5,157C 173.302,156.152 170.469,154.652 168,152.5C 150.755,161.206 133.588,170.039 116.5,179C 118.751,188.997 115.085,195.83 105.5,199.5C 101.5,199.5 97.5,199.5 93.5,199.5C 83.9155,195.83 80.2488,188.997 82.5,179C 65.4117,170.039 48.245,161.206 31,152.5C 23.3582,158.074 15.1915,158.907 6.5,155C 3.54644,152.559 1.21311,149.725 -0.5,146.5C -0.5,143.167 -0.5,139.833 -0.5,136.5C 2.30624,130.87 6.80624,127.203 13,125.5C 13.6667,108.167 13.6667,90.8333 13,73.5C 6.80624,71.7969 2.30624,68.1302 -0.5,62.5C -0.5,59.1667 -0.5,55.8333 -0.5,52.5C 4.33719,43.1525 12.0039,39.6525 22.5,42C 25.6978,42.8485 28.5311,44.3485 31,46.5C 48.245,37.7943 65.4117,28.961 82.5,20C 80.2488,10.0028 83.9155,3.16951 93.5,-0.5 Z M 97.5,5.5 C 107.214,5.69103 111.048,10.3577 109,19.5C 105.562,24.0809 101.062,25.5809 95.5,24C 88.6,20.7256 87.1,15.8923 91,9.5C 93.0129,7.7518 95.1795,6.41847 97.5,5.5 Z M 84.5,26.5 C 87.8379,28.6659 91.5046,29.9993 95.5,30.5C 95.3343,34.8461 95.501,39.1794 96,43.5C 98.3333,46.1667 100.667,46.1667 103,43.5C 103.499,39.1794 103.666,34.8461 103.5,30.5C 107.266,30.2847 110.6,28.9513 113.5,26.5C 130.323,34.7445 146.989,43.2445 163.5,52C 163.299,55.2239 163.633,58.5572 164.5,62C 159.788,64.3493 155.455,67.1826 151.5,70.5C 152.167,72.5 153.5,73.8333 155.5,74.5C 159.5,72.5 163.5,70.5 167.5,68.5C 170.692,70.8461 174.192,72.5127 178,73.5C 178.833,90.8429 178.666,108.176 177.5,125.5C 173.888,126.639 170.554,128.306 167.5,130.5C 163.5,128.5 159.5,126.5 155.5,124.5C 153.5,125.167 152.167,126.5 151.5,128.5C 155.455,131.817 159.788,134.651 164.5,137C 163.633,140.443 163.299,143.776 163.5,147C 146.989,155.755 130.323,164.255 113.5,172.5C 110.6,170.049 107.266,168.715 103.5,168.5C 103.666,164.154 103.499,159.821 103,155.5C 100.667,152.833 98.3333,152.833 96,155.5C 95.501,159.821 95.3343,164.154 95.5,168.5C 91.7337,168.715 88.4003,170.049 85.5,172.5C 68.6772,164.255 52.0105,155.755 35.5,147C 35.7008,143.776 35.3674,140.443 34.5,137C 38.7495,134.626 42.9162,132.126 47,129.5C 47.3087,126.952 46.142,125.285 43.5,124.5C 39.5,126.5 35.5,128.5 31.5,130.5C 28.4456,128.306 25.1122,126.639 21.5,125.5C 20.3337,108.176 20.167,90.8429 21,73.5C 24.7414,72.6293 28.0747,70.9627 31,68.5C 35.2275,70.3637 39.3942,72.3637 43.5,74.5C 46.142,73.7149 47.3087,72.0483 47,69.5C 42.9162,66.8742 38.7495,64.3742 34.5,62C 35.8333,59 35.8333,56 34.5,53C 51.0698,43.883 67.7365,35.0497 84.5,26.5 Z M 15.5,47.5 C 24.7051,47.8645 28.5384,52.5311 27,61.5C 21.9145,67.1158 16.0811,67.9491 9.5,64C 4.5838,55.9974 6.5838,50.4974 15.5,47.5 Z M 180.5,47.5 C 191.177,48.6362 194.344,53.9695 190,63.5C 180.732,69.131 174.232,66.9643 170.5,57C 172.121,51.875 175.455,48.7084 180.5,47.5 Z M 80.5,66.5 C 93.5043,66.3334 106.504,66.5001 119.5,67C 120.823,76.4701 120.823,85.9701 119.5,95.5C 106.517,96.4991 93.5171,96.8325 80.5,96.5C 80.5,86.5 80.5,76.5 80.5,66.5 Z M 97.5,98.5 C 99.1667,98.5 100.833,98.5 102.5,98.5C 102.5,100.167 102.5,101.833 102.5,103.5C 100.833,103.5 99.1667,103.5 97.5,103.5C 97.5,101.833 97.5,100.167 97.5,98.5 Z M 62.5,111.5 C 63.8333,111.5 65.1667,111.5 66.5,111.5C 66.5,112.833 66.5,114.167 66.5,115.5C 65.1667,115.5 63.8333,115.5 62.5,115.5C 62.5,114.167 62.5,112.833 62.5,111.5 Z M 84.5,111.5 C 85.8333,111.5 87.1667,111.5 88.5,111.5C 88.5,112.833 88.5,114.167 88.5,115.5C 87.1667,115.5 85.8333,115.5 84.5,115.5C 84.5,114.167 84.5,112.833 84.5,111.5 Z M 133.5,111.5 C 134.833,111.5 136.167,111.5 137.5,111.5C 137.833,114.5 136.5,115.833 133.5,115.5C 133.5,114.167 133.5,112.833 133.5,111.5 Z M 108.5,122.5 C 109.756,122.461 110.756,122.961 111.5,124C 110.167,124.667 108.833,124.667 107.5,124C 108.056,123.617 108.389,123.117 108.5,122.5 Z M 12.5,132.5 C 23.0425,130.886 27.8758,135.219 27,145.5C 21.047,152.815 14.7136,153.149 8,146.5C 5.76286,140.639 7.26286,135.973 12.5,132.5 Z M 177.5,132.5 C 185.55,131.177 190.55,134.344 192.5,142C 189.873,149.98 184.539,152.647 176.5,150C 168.96,143.911 169.294,138.078 177.5,132.5 Z M 95.5,174.5 C 103.181,173.169 108.181,176.169 110.5,183.5C 109.386,189.613 105.719,192.946 99.5,193.5C 92.1828,192.691 88.6828,188.691 89,181.5C 90.6941,178.642 92.8607,176.309 95.5,174.5 Z"/></g>
<g><path style="opacity:0.565" fill="#020003" d="M 79.5,64.5 C 93.4123,64.1767 107.246,64.5101 121,65.5C 121.832,76.1823 121.666,86.8489 120.5,97.5C 115.23,98.4512 109.897,98.7846 104.5,98.5C 104.162,101.325 105.162,103.492 107.5,105C 102.5,105.667 97.5,105.667 92.5,105C 94.8384,103.492 95.8384,101.325 95.5,98.5C 90.1032,98.7846 84.7698,98.4512 79.5,97.5C 78.1913,86.4387 78.1913,75.4387 79.5,64.5 Z M 80.5,66.5 C 80.5,76.5 80.5,86.5 80.5,96.5C 93.5171,96.8325 106.517,96.4991 119.5,95.5C 120.823,85.9701 120.823,76.4701 119.5,67C 106.504,66.5001 93.5043,66.3334 80.5,66.5 Z M 97.5,98.5 C 97.5,100.167 97.5,101.833 97.5,103.5C 99.1667,103.5 100.833,103.5 102.5,103.5C 102.5,101.833 102.5,100.167 102.5,98.5C 100.833,98.5 99.1667,98.5 97.5,98.5 Z"/></g>
<g><path style="opacity:0.517" fill="#010002" d="M 101.5,72.5 C 102.497,72.4701 103.164,72.9701 103.5,74C 101.912,79.7713 99.7452,85.2713 97,90.5C 98.1511,84.4933 99.6511,78.4933 101.5,72.5 Z"/></g>
<g><path style="opacity:0.515" fill="#010002" d="M 92.5,74.5 C 93.525,74.8966 93.6917,75.5632 93,76.5C 90.9205,78.1233 88.7538,79.6233 86.5,81C 88.6667,82.5 90.8333,84 93,85.5C 93.6877,86.3317 93.521,86.9984 92.5,87.5C 89.328,85.7481 86.328,83.7481 83.5,81.5C 86.2327,78.7606 89.2327,76.4273 92.5,74.5 Z"/></g>
<g><path style="opacity:0.504" fill="#010002" d="M 106.5,74.5 C 110.239,76.0772 113.572,78.2438 116.5,81C 113.947,83.6265 110.947,85.7932 107.5,87.5C 106.479,86.9984 106.312,86.3317 107,85.5C 109.428,84.37 111.595,82.87 113.5,81C 110.214,79.7183 107.88,77.5517 106.5,74.5 Z"/></g>
<g><path style="opacity:0.673" fill="#010002" d="M 136.5,104.5 C 140.333,105.667 140.333,106.833 136.5,108C 139.101,110.544 140.101,113.71 139.5,117.5C 136.552,117.777 133.719,117.444 131,116.5C 130.333,114.5 130.333,112.5 131,110.5C 133.38,108.955 135.214,106.955 136.5,104.5 Z M 133.5,111.5 C 133.5,112.833 133.5,114.167 133.5,115.5C 136.5,115.833 137.833,114.5 137.5,111.5C 136.167,111.5 134.833,111.5 133.5,111.5 Z"/></g>
<g><path style="opacity:0.871" fill="#010003" d="M 127.5,105.5 C 129.337,105.639 129.67,106.306 128.5,107.5C 127.702,107.043 127.369,106.376 127.5,105.5 Z"/></g>
<g><path style="opacity:0.741" fill="#020002" d="M 50.5,106.5 C 53.5719,106.183 56.5719,106.516 59.5,107.5C 57.2573,108.474 54.924,108.808 52.5,108.5C 52.5,110.833 52.5,113.167 52.5,115.5C 54.8333,115.5 57.1667,115.5 59.5,115.5C 59.002,109.501 61.6687,107.334 67.5,109C 68.4438,111.719 68.7771,114.552 68.5,117.5C 62.5993,116.814 56.5993,116.647 50.5,117C 49.2035,113.501 49.2035,110.001 50.5,106.5 Z M 62.5,111.5 C 62.5,112.833 62.5,114.167 62.5,115.5C 63.8333,115.5 65.1667,115.5 66.5,115.5C 66.5,114.167 66.5,112.833 66.5,111.5C 65.1667,111.5 63.8333,111.5 62.5,111.5 Z"/></g>
<g><path style="opacity:0.628" fill="#020003" d="M 109.5,111.5 C 108.5,111.5 107.5,111.5 106.5,111.5C 106.5,113.5 106.5,115.5 106.5,117.5C 105.5,117.5 104.5,117.5 103.5,117.5C 103.752,114.756 103.085,112.256 101.5,110C 102.333,108.5 103.5,107.333 105,106.5C 106.3,107.707 107.8,108.374 109.5,108.5C 109.5,109.5 109.5,110.5 109.5,111.5 Z"/></g>
<g><path style="opacity:0.617" fill="#020002" d="M 70.5,108.5 C 73.5184,108.335 76.5184,108.502 79.5,109C 81.1376,112.057 82.4709,112.057 83.5,109C 86.8342,107.788 89.3342,108.621 91,111.5C 91.4828,110.552 91.6495,109.552 91.5,108.5C 92.5,108.5 93.5,108.5 94.5,108.5C 94.3379,110.527 94.5045,112.527 95,114.5C 96.0113,115.337 97.1779,115.67 98.5,115.5C 98.1924,113.076 98.5258,110.743 99.5,108.5C 100.484,111.428 100.817,114.428 100.5,117.5C 97.2123,117.927 94.2123,117.26 91.5,115.5C 89.4775,117.173 87.1441,117.84 84.5,117.5C 84.6399,119.124 83.9733,120.29 82.5,121C 83.7014,121.903 84.5348,123.069 85,124.5C 85.2189,123.062 85.7189,121.729 86.5,120.5C 87.1924,121.025 87.6924,121.692 88,122.5C 90.0065,121.331 92.1732,120.665 94.5,120.5C 94.8134,123.247 94.48,125.914 93.5,128.5C 92.6922,126.577 92.1922,124.577 92,122.5C 91.0475,124.592 89.7141,124.925 88,123.5C 87.8843,129.109 86.2176,129.776 83,125.5C 82.7508,126.624 82.2508,127.624 81.5,128.5C 80.4138,124.845 80.4138,121.178 81.5,117.5C 80.5,117.5 79.5,117.5 78.5,117.5C 78.1667,109.5 77.8333,109.5 77.5,117.5C 76.5,117.5 75.5,117.5 74.5,117.5C 73.8333,109.5 73.1667,109.5 72.5,117.5C 71.5,117.5 70.5,117.5 69.5,117.5C 69.2641,114.391 69.5975,111.391 70.5,108.5 Z M 84.5,111.5 C 84.5,112.833 84.5,114.167 84.5,115.5C 85.8333,115.5 87.1667,115.5 88.5,115.5C 88.5,114.167 88.5,112.833 88.5,111.5C 87.1667,111.5 85.8333,111.5 84.5,111.5 Z"/></g>
<g><path style="opacity:0.67" fill="#010002" d="M 109.5,111.5 C 110.404,110.791 110.737,109.791 110.5,108.5C 112.792,108.244 114.959,108.577 117,109.5C 117.497,112.146 117.664,114.813 117.5,117.5C 114.813,117.664 112.146,117.497 109.5,117C 108.464,115.224 108.464,113.391 109.5,111.5 Z"/></g>
<g><path style="opacity:0.707" fill="#010002" d="M 119.5,108.5 C 121.833,108.5 124.167,108.5 126.5,108.5C 126.5,109.5 126.5,110.5 126.5,111.5C 124.5,111.5 122.5,111.5 120.5,111.5C 120.33,112.822 120.663,113.989 121.5,115C 123.256,115.202 124.922,115.702 126.5,116.5C 123.914,117.48 121.247,117.813 118.5,117.5C 118.264,114.391 118.597,111.391 119.5,108.5 Z"/></g>
<g><path style="opacity:0.913" fill="#010003" d="M 127.5,108.5 C 128.765,109.514 129.431,111.014 129.5,113C 129.167,114.5 128.833,116 128.5,117.5C 127.516,114.572 127.183,111.572 127.5,108.5 Z"/></g>
<g><path style="opacity:0.674" fill="#020002" d="M 140.5,108.5 C 147.833,107.167 150.833,110.167 149.5,117.5C 148.5,117.5 147.5,117.5 146.5,117.5C 146.5,115.5 146.5,113.5 146.5,111.5C 145.167,111.5 143.833,111.5 142.5,111.5C 142.799,113.604 142.466,115.604 141.5,117.5C 140.516,114.572 140.183,111.572 140.5,108.5 Z"/></g>
<g><path style="opacity:0.565" fill="#020002" d="M 140.5,119.5 C 141.082,122.105 141.415,125.105 141.5,128.5C 138.989,128.162 136.655,128.162 134.5,128.5C 132.942,123.306 131.942,123.306 131.5,128.5C 128.833,128.5 126.167,128.5 123.5,128.5C 123.058,123.306 122.058,123.306 120.5,128.5C 119.534,126.604 119.201,124.604 119.5,122.5C 124.665,122.809 129.665,122.976 134.5,123C 135.126,123.75 135.626,124.584 136,125.5C 136.971,123.039 138.471,121.039 140.5,119.5 Z"/></g>
<g><path style="opacity:0.615" fill="#010003" d="M 57.5,120.5 C 59.604,120.201 61.604,120.534 63.5,121.5C 62.2713,122.281 60.938,122.781 59.5,123C 64.8333,124 64.8333,125 59.5,126C 60.938,126.219 62.2713,126.719 63.5,127.5C 61.604,128.466 59.604,128.799 57.5,128.5C 57.5,125.833 57.5,123.167 57.5,120.5 Z"/></g>
<g><path style="opacity:0.646" fill="#010003" d="M 64.5,120.5 C 68.8839,120.174 73.2172,120.508 77.5,121.5C 76.675,122.386 75.675,122.719 74.5,122.5C 74.1667,130.5 73.8333,130.5 73.5,122.5C 70.8127,122.336 68.146,122.503 65.5,123C 72.1667,124 72.1667,125 65.5,126C 71.9026,127.423 71.5692,128.257 64.5,128.5C 64.5,125.833 64.5,123.167 64.5,120.5 Z"/></g>
<g><path style="opacity:0.597" fill="#010002" d="M 106.5,120.5 C 110.36,121.644 114.36,122.311 118.5,122.5C 118.5,124.5 118.5,126.5 118.5,128.5C 115.423,128.653 112.589,127.986 110,126.5C 108.674,126.755 107.674,127.422 107,128.5C 106.503,125.854 106.336,123.187 106.5,120.5 Z M 108.5,122.5 C 108.389,123.117 108.056,123.617 107.5,124C 108.833,124.667 110.167,124.667 111.5,124C 110.756,122.961 109.756,122.461 108.5,122.5 Z"/></g>
<g><path style="opacity:0.424" fill="#010002" d="M 97.5,123.5 C 99.288,123.215 100.955,123.548 102.5,124.5C 101.667,124.833 100.833,125.167 100,125.5C 98.6244,125.316 97.7911,124.649 97.5,123.5 Z"/></g>
</svg>
